<svg xmlns="http://www.w3.org/2000/svg" viewBox="0 0 64 64" fill="none">
  <rect width="64" height="64" rx="16" fill="#060B14"/>
  <path d="M24 14C17.4 14 12 17.6 12 22.2c0 3.3 2.8 6.1 6.9 7.4V35c-4.1 1.3-6.9 4.1-6.9 7.4C12 47 17.4 50.6 24 50.6h16c6.6 0 12-3.6 12-8.2 0-3.3-2.8-6.1-6.9-7.4v-5.4c4.1-1.3 6.9-4.1 6.9-7.4C52 17.6 46.6 14 40 14H24Z" fill="#00E5FF" opacity="0.18"/>
  <rect x="28" y="10" width="8" height="44" rx="4" fill="#00E5FF"/>
  <circle cx="32" cy="18" r="5" fill="#00E5FF"/>
  <circle cx="32" cy="46" r="5" fill="#00E5FF"/>
</svg>